# File created by Blade
# Date/Time:  Fri Jan 16 17:53:05 2015
# Frame Rate: 120.000 fps
#------------------------------------------------------
:FULLY-SPECIFIED
:DEGREES
2172
root -5.767341 35.465231 -12.530266 -3.036752 -6.134535 -6.776279
Spine 12.845083 -2.279049 5.758622
Head 32.322921 7.432645 0.360097
LeftShoulder -23.389224 19.893560 -5.843259
LeftArm 24.992950 -48.944146 -74.505907
LeftForeArm 0.829689 -0.000000 109.765936
LeftHand 4.198019 -0.000000 22.966683
LeftHandThumb1 -26.253704 0.000000 33.147579
RightShoulder -5.336722 -7.659411 -0.539801
RightArm 7.353323 -20.356929 63.064086
RightForeArm -24.322200 -0.000000 24.385820
RightHand 1.359850 -0.000000 6.782384
RightHandThumb1 -24.326973 -0.000000 -32.862282
LeftUpLeg 10.329006 10.511985 0.668182
LeftLeg -8.839812 -0.000000 0.000000
LeftFoot -13.766656 28.453692 -7.715845
LeftToeBase 19.538502 -0.000000 -0.000000
RightUpLeg -0.963231 0.680094 4.790830
RightLeg 10.407457 -0.000000 -0.000000
RightFoot -8.688111 -26.638912 5.345862
RightToeBase -8.153200 -0.000000 0.000000
2173
root -5.828685 35.464771 -12.498840 -3.074949 -6.132642 -6.717141
Spine 12.741102 -2.176370 5.771261
Head 32.372191 7.441162 0.317651
LeftShoulder -23.521240 19.998741 -5.864079
LeftArm 25.116696 -49.427031 -73.998284
LeftForeArm 0.502629 -0.000000 108.170220
LeftHand 4.408276 -0.000000 23.041654
LeftHandThumb1 -26.253704 0.000000 33.147579
RightShoulder -5.337501 -7.678135 -0.655222
RightArm 7.180256 -19.836523 62.684090
RightForeArm -24.158759 -0.000000 23.891383
RightHand 1.268729 0.000000 6.916865
RightHandThumb1 -24.326973 -0.000000 -32.862282
LeftUpLeg 10.357760 10.545436 0.724655
LeftLeg -8.705272 -0.000000 0.000000
LeftFoot -13.912377 28.454895 -7.724580
LeftToeBase 19.740004 -0.000000 -0.000000
RightUpLeg -0.597249 0.208791 4.724694
RightLeg 9.869518 -0.000000 -0.000000
RightFoot -8.118059 -26.686196 5.281909
RightToeBase -7.894835 -0.000000 0.000000
2174
root -5.890225 35.463853 -12.463206 -3.145023 -6.140733 -6.648563
Spine 12.661168 -2.063742 5.798846
Head 32.409676 7.484132 0.258013
LeftShoulder -23.560917 20.085579 -5.848814
LeftArm 25.191475 -50.013756 -73.464135
LeftForeArm -0.047088 0.000000 106.485520
LeftHand 4.683814 -0.000000 22.939093
LeftHandThumb1 -26.253704 0.000000 33.147579
RightShoulder -5.356907 -7.621828 -0.820890
RightArm 6.933100 -19.291412 62.339423
RightForeArm -24.071842 -0.000000 23.362072
RightHand 1.523281 -0.000000 7.125678
RightHandThumb1 -24.326973 -0.000000 -32.862282
LeftUpLeg 10.425861 10.466894 0.767131
LeftLeg -8.562128 -0.000000 0.000000
LeftFoot -14.076054 28.499367 -7.910361
LeftToeBase 19.655732 -0.000000 -0.000000
RightUpLeg -0.173420 -0.307115 4.653076
RightLeg 9.282501 -0.000000 -0.000000
RightFoot -7.610988 -26.679730 5.403456
RightToeBase -7.310125 -0.000000 0.000000
2175
root -5.959315 35.462918 -12.427357 -3.193830 -6.153341 -6.599621
Spine 12.546705 -1.969840 5.826102
Head 32.437499 7.506810 0.187687
LeftShoulder -23.714877 20.298826 -5.826312
LeftArm 25.633767 -50.584246 -73.390488
LeftForeArm -0.482138 -0.000000 104.702951
LeftHand 5.042105 -0.000000 22.425923
LeftHandThumb1 -26.253704 0.000000 33.147579
RightShoulder -5.328444 -7.698087 -0.969278
RightArm 6.734905 -18.679076 61.960433
RightForeArm -23.808976 -0.000000 22.986887
RightHand 1.350044 -0.000000 7.384274
RightHandThumb1 -24.326973 -0.000000 -32.862282
LeftUpLeg 10.471518 10.436183 0.840073
LeftLeg -8.414263 -0.000000 0.000000
LeftFoot -14.227829 28.554172 -7.996771
LeftToeBase 19.682510 -0.000000 -0.000000
RightUpLeg 0.243432 -0.803186 4.622082
RightLeg 8.642240 -0.000000 -0.000000
RightFoot -7.350816 -26.553791 6.070383
RightToeBase -6.037447 -0.000000 0.000000
2176
root -6.025296 35.461248 -12.392132 -3.211584 -6.194608 -6.532697
Spine 12.377921 -1.819893 5.844602
Head 32.493303 7.536975 0.122857
LeftShoulder -23.789574 20.428156 -5.845103
LeftArm 25.675683 -51.099217 -72.697920
LeftForeArm -1.214728 -0.000000 102.915269
LeftHand 5.451400 -0.000000 22.214552
LeftHandThumb1 -26.253704 0.000000 33.147579
RightShoulder -5.377704 -7.658151 -1.123789
RightArm 6.492040 -18.223977 61.525043
RightForeArm -23.463934 -0.000000 22.564480
RightHand 1.352419 -0.000000 7.727335
RightHandThumb1 -24.326973 -0.000000 -32.862282
LeftUpLeg 10.482224 10.525809 0.900390
LeftLeg -8.252302 -0.000000 0.000000
LeftFoot -14.360591 28.488923 -8.040099
LeftToeBase 19.677472 -0.000000 -0.000000
RightUpLeg 0.632733 -1.340503 4.563535
RightLeg 7.956064 -0.000000 -0.000000
RightFoot -7.200263 -26.385050 6.333691
RightToeBase -3.488807 -0.000000 0.000000
2177
root -6.090843 35.459136 -12.345753 -3.265193 -6.342766 -6.479153
Spine 12.223989 -1.611854 5.935888
Head 32.558987 7.645540 -0.045861
LeftShoulder -23.861925 20.550819 -5.944203
LeftArm 25.635393 -51.591865 -71.839684
LeftForeArm -1.769942 0.000000 101.071042
LeftHand 5.331380 0.000000 22.675630
LeftHandThumb1 -26.253704 0.000000 33.147579
RightShoulder -5.273818 -7.568621 -1.390607
RightArm 6.038193 -16.078859 61.548347
RightForeArm -24.805468 -0.000000 21.989933
RightHand 1.854255 -0.000000 8.534864
RightHandThumb1 -24.326973 -0.000000 -32.862282
LeftUpLeg 10.598777 10.739928 0.995146
LeftLeg -8.164891 -0.000000 0.000000
LeftFoot -14.523526 28.414202 -8.156268
LeftToeBase 19.713485 -0.000000 -0.000000
RightUpLeg 1.080262 -1.834933 4.533460
RightLeg 7.214406 -0.000000 -0.000000
RightFoot -6.938904 -25.976826 6.177417
RightToeBase -0.572304 -0.000000 0.000000
2178
root -6.163998 35.458241 -12.308207 -3.295543 -6.368574 -6.402169
Spine 12.053715 -1.482802 5.940866
Head 32.584453 7.711311 -0.165082
LeftShoulder -23.939264 20.669042 -5.973640
LeftArm 25.773350 -52.134823 -71.186072
LeftForeArm -2.608859 -0.000000 99.164635
LeftHand 5.912948 -0.000000 21.462930
LeftHandThumb1 -26.253704 0.000000 33.147579
RightShoulder -5.255319 -7.453692 -1.573196
RightArm 5.687317 -14.574873 61.286276
RightForeArm -25.555777 -0.000000 21.462398
RightHand 2.231144 -0.000000 9.260131
RightHandThumb1 -24.326973 -0.000000 -32.862282
LeftUpLeg 10.547388 10.941132 1.082475
LeftLeg -7.836658 -0.000000 0.000000
LeftFoot -14.752295 28.190196 -8.219873
LeftToeBase 19.786725 -0.000000 -0.000000
RightUpLeg 1.498894 -2.471052 4.502425
RightLeg 6.424267 -0.000000 -0.000000
RightFoot -6.537286 -25.454654 5.733864
RightToeBase 2.267058 -0.000000 -0.000000
2179
root -6.243576 35.457242 -12.271235 -3.343419 -6.359221 -6.350143
Spine 11.907366 -1.410228 5.955263
Head 32.591007 7.824226 -0.243602
LeftShoulder -24.053087 20.792524 -5.990300
LeftArm 25.926591 -52.573053 -70.507652
LeftForeArm -3.205150 -0.000000 97.185175
LeftHand 6.461815 -0.000000 21.117399
LeftHandThumb1 -26.253704 0.000000 33.147579
RightShoulder -5.296124 -7.402224 -1.751124
RightArm 5.470441 -14.060229 60.774225
RightForeArm -25.213973 -0.000000 21.065995
RightHand 2.268659 0.000000 9.589875
RightHandThumb1 -24.326973 -0.000000 -32.862282
LeftUpLeg 10.589063 10.880904 1.167240
LeftLeg -7.677076 -0.000000 0.000000
LeftFoot -14.902031 28.233606 -8.291230
LeftToeBase 19.761047 -0.000000 -0.000000
RightUpLeg 1.937859 -3.117125 4.515784
RightLeg 5.605977 -0.000000 -0.000000
RightFoot -5.943974 -25.007786 5.009067
RightToeBase 5.305173 -0.000000 -0.000000
2180
root -6.322721 35.457518 -12.228774 -3.429619 -6.380357 -6.275438
Spine 11.783753 -1.275024 5.939132
Head 32.588426 7.834873 -0.346496
LeftShoulder -24.107542 20.936715 -5.914784
LeftArm 26.188725 -52.997217 -70.075931
LeftForeArm -3.470697 -0.000000 95.341531
LeftHand 5.477785 -0.000000 21.042937
LeftHandThumb1 -26.253704 0.000000 33.147579
RightShoulder -5.368715 -7.435495 -1.872747
RightArm 5.322783 -14.122245 60.069641
RightForeArm -24.379033 -0.000000 20.758260
RightHand 2.062592 0.000000 9.197915
RightHandThumb1 -24.326973 -0.000000 -32.862282
LeftUpLeg 10.652310 10.762837 1.231848
LeftLeg -7.458762 -0.000000 0.000000
LeftFoot -15.122302 28.343395 -8.432782
LeftToeBase 19.829796 -0.000000 -0.000000
RightUpLeg 2.436417 -3.733263 4.502424
RightLeg 4.748064 -0.000000 -0.000000
RightFoot -5.310767 -24.656158 4.268022
RightToeBase 8.292262 -0.000000 -0.000000
2181
root -6.403402 35.458222 -12.190771 -3.453513 -6.386607 -6.228520
Spine 11.589954 -1.217528 5.949268
Head 32.601963 7.942712 -0.437394
LeftShoulder -24.220141 21.030492 -5.893138
LeftArm 26.298494 -53.426578 -69.387318
LeftForeArm -4.180162 -0.000000 93.322606
LeftHand 5.244013 -0.000000 20.773542
LeftHandThumb1 -26.253704 0.000000 33.147579
RightShoulder -5.400244 -7.383760 -1.892706
RightArm 5.095301 -14.947260 58.957081
RightForeArm -22.835838 -0.000000 20.671775
RightHand 1.905411 -0.000000 9.346063
RightHandThumb1 -24.326973 -0.000000 -32.862282
LeftUpLeg 10.641188 10.790920 1.337000
LeftLeg -7.232540 -0.000000 0.000000
LeftFoot -15.315378 28.307081 -8.517592
LeftToeBase 19.936045 -0.000000 -0.000000
RightUpLeg 2.861090 -4.157246 4.535731
RightLeg 3.955875 -0.000000 -0.000000
RightFoot -4.828553 -24.447624 3.820462
RightToeBase 10.782458 -0.000000 -0.000000
2182
root -6.492180 35.461340 -12.160104 -3.510470 -6.297007 -6.193642
Spine 11.456605 -1.217831 5.975707
Head 32.542765 8.068116 -0.549246
LeftShoulder -24.289127 21.125870 -5.882101
LeftArm 26.597968 -53.897300 -68.825437
LeftForeArm -4.793494 -0.000000 91.154843
LeftHand 5.418659 -0.000000 20.067304
LeftHandThumb1 -26.253704 0.000000 33.147579
RightShoulder -5.401688 -7.265996 -2.048555
RightArm 4.774973 -14.362410 58.392336
RightForeArm -22.518039 -0.000000 20.431102
RightHand 1.687478 -0.000000 9.536386
RightHandThumb1 -24.326973 -0.000000 -32.862282
LeftUpLeg 10.594989 10.732775 1.468164
LeftLeg -6.919940 -0.000000 0.000000
LeftFoot -15.522480 28.281170 -8.523481
LeftToeBase 20.112598 -0.000000 -0.000000
RightUpLeg 3.289871 -4.614352 4.600948
RightLeg 3.261714 -0.000000 -0.000000
RightFoot -4.490218 -24.292294 3.495073
RightToeBase 11.991634 -0.000000 -0.000000
